# xmcd CD database file
# Generated: czw gru 4 15:44:31 2003 by KSCD
# 
# Track frame offsets:
#       150
#       18374
#       34723
#       57297
#       72990
#       88683
#       107462
#       128055
#       143098
#       161546
#       182049
#       199627
#
# Disc length: 2844 seconds
#
# Revision: 1
# Processed by: cddbd v1.4PL0 Copyright (c) Steve Scherf et al.
# Submitted via: Kscd 1.3.3
#
DISCID=9a0b1a0c
DTITLE=Jak Nowonarodzony - Wodi
DYEAR=1900
DGENRE=
TTITLE0=jak_nowonarodzony
TTITLE1=a_reszta_to_proch_i_pyl
TTITLE2=na_zywo_feat_pono_daf
TTITLE3=spalam_to
TTITLE4=alarm
TTITLE5=stawka_wieksza_niz____feat_kor
TTITLE6=zebro_adama
TTITLE7=u.l.i.c.a._i_k.l.u.b.
TTITLE8=odrzucili_opcje_feat_peja
TTITLE9=protest_feax_visa
TTITLE10=jak_nowonarodzony_waco_remix
TTITLE11=jak_nowonarodzony_hohol_remix
EXTD=
EXTT0=
EXTT1=
EXTT2=
EXTT3=
EXTT4=
EXTT5=
EXTT6=
EXTT7=
EXTT8=
EXTT9=
EXTT10=
EXTT11=
PLAYORDER=
